<?xml version="1.0" encoding="UTF-8" standalone="no"?>
<svg xmlns:svg="http://www.w3.org/2000/svg" xmlns="http://www.w3.org/2000/svg" version="1.1" viewBox="0 0 416.02994 416.02994" width="416.02994" height="416.02994">
  <path style="fill:#aaaaaa;fill-opacity:1" d="m 314.28489,0 c -14.9625,0 -29.93672,5.7238281 -41.38672,17.173828 L 10.29857,279.77344 0.2985699,370.17383 c -2.9,26.4 19.3996101,48.49961 45.5996101,45.59961 l 90.40038,-10 262.59961,-262.59961 c 22.8,-22.8 22.80039,-59.89883 -0.0996,-82.79883 L 355.59739,17.173828 C 344.19739,5.7238282 329.24739,0 314.28489,0 Z m -0.0254,48.09961 c 2.6875,0 5.3875,1.024218 7.4375,3.074218 L 364.89816,94.375 c 4.1,4.1 4.09961,10.69844 0.0996,14.89844 l -30.90037,30.90039 -58.09961,-58.099611 30.90039,-30.900391 c 2,-2.05 4.67383,-3.074218 7.36133,-3.074218 z m -72.26171,67.875 58.09961,58.09961 L 114.197,359.875 48.89818,367.17383 56.19701,301.875 Z" />
</svg>
