<?xml version="1.0" encoding="UTF-8" standalone="no"?>
<svg
   xmlns:dc="http://purl.org/dc/elements/1.1/"
   xmlns:cc="http://creativecommons.org/ns#"
   xmlns:rdf="http://www.w3.org/1999/02/22-rdf-syntax-ns#"
   xmlns:svg="http://www.w3.org/2000/svg"
   xmlns="http://www.w3.org/2000/svg"
   id="svg32"
   viewBox="0 0 40.899998 46.541532"
   version="1.1"
   width="154.58"
   height="175.9">
  <defs
     id="defs36" />
  <g
     transform="translate(20.45,26.092)"
     id="g20"
     style="fill:none;stroke:#00e2cc">
    <circle
       cy="0"
       cx="0"
       r="20"
       id="circle2"
       style="stroke-width:0.89999998" />
    <g
       id="g18"
       style="stroke-width:0.80000001">
      <path
         d="M -8.0384,-18.314 8.0386,18.314"
         id="path4" />
      <path
         d="M -8.056,-18.215 A 28,28 0 0 1 12.208,15.587"
         id="path6" />
      <path
         d="M 2.9622,19.857 A 28,28 0 0 1 -10.4118,3.081 28,28 0 0 1 -7.986,-18.236"
         id="path8" />
      <path
         d="m 3.6294,-19.699 a 15,15 0 0 1 -8.254,9.4805 15,15 0 0 1 -12.569,-0.12883"
         id="path10" />
      <path
         d="m 11.386,-16.593 a 22,22 0 0 1 -12.15,14.715 22,22 0 0 1 -19.08,-0.3174"
         id="path12" />
      <path
         d="M 17.602,-9.6662 A 26,26 0 0 1 3.292,7.2738 26,26 0 0 1 -18.881,7.0135"
         id="path14" />
      <path
         d="m 19.875,1.2368 a 27,27 0 0 1 -32.552,14.278"
         id="path16" />
    </g>
  </g>
  <path
     id="path22"
     transform="matrix(0.26459087,0,0,0.26459087,-2.2940084e-4,0)"
     d="m 135.10352,0.06835937 a 16.649479,16.649479 0 0 0 -9.26563,3.31445313 16.649479,16.649479 0 0 0 -5.5918,19.1835935 h 0.002 l 15.58203,41.484375 15.58203,-41.484375 A 16.649479,16.649479 0 0 0 145.82031,3.3828125 16.649479,16.649479 0 0 0 135.10352,0.06835937 Z m 0.72656,8.37500003 a 7.7697314,7.7697314 0 0 1 7.76953,7.7695316 7.7697314,7.7697314 0 0 1 -7.76953,7.771484 7.7697314,7.7697314 0 0 1 -7.76953,-7.771484 7.7697314,7.7697314 0 0 1 7.76953,-7.7695316 z"
     style="fill:#00e2cc;fill-opacity:1" />
</svg>
