<?xml version="1.0" encoding="UTF-8" standalone="no"?>
<svg
   xmlns:dc="http://purl.org/dc/elements/1.1/"
   xmlns:cc="http://creativecommons.org/ns#"
   xmlns:rdf="http://www.w3.org/1999/02/22-rdf-syntax-ns#"
   xmlns:svg="http://www.w3.org/2000/svg"
   xmlns="http://www.w3.org/2000/svg"
   xmlns:sodipodi="http://sodipodi.sourceforge.net/DTD/sodipodi-0.dtd"
   xmlns:inkscape="http://www.inkscape.org/namespaces/inkscape"
   id="svg8"
   version="1.1"
   viewBox="0 0 170.3033 170.3033"
   height="482.74951pt"
   width="482.74951pt"
   sodipodi:docname="looking_glass.svg"
   inkscape:version="0.92.3 (2405546, 2018-03-11)">
  <sodipodi:namedview
     pagecolor="#ffffff"
     bordercolor="#666666"
     borderopacity="1"
     objecttolerance="10"
     gridtolerance="10"
     guidetolerance="10"
     inkscape:pageopacity="0"
     inkscape:pageshadow="2"
     inkscape:window-width="1920"
     inkscape:window-height="1025"
     id="namedview6"
     showgrid="false"
     inkscape:pagecheckerboard="false"
     inkscape:zoom="0.36664978"
     inkscape:cx="327.2878"
     inkscape:cy="321.83301"
     inkscape:window-x="0"
     inkscape:window-y="27"
     inkscape:window-maximized="1"
     inkscape:current-layer="svg8" />
  <defs
     id="defs2" />
  <path
     style="fill:#ffffff"
     d="M 217.32227,0 C 97.633933,0 0,97.633933 0,217.32227 0,337.0106 97.633933,434.64648 217.32227,434.64648 c 49.6648,0 95.5233,-16.82469 132.19335,-45.04687 L 603.58008,643.66406 643.66406,603.58008 389.59961,349.51562 C 417.82179,312.84557 434.64648,266.98707 434.64648,217.32227 434.64648,97.633933 337.0106,0 217.32227,0 Z m 0,56.693359 c 89.04921,0 160.63086,71.579691 160.63085,160.628911 0,89.04921 -71.58164,160.63086 -160.63085,160.63085 -89.04922,0 -160.628911,-71.58164 -160.628911,-160.63085 0,-89.04922 71.579691,-160.628911 160.628911,-160.628911 z"
     transform="scale(0.26458333)"
     id="path819"
     inkscape:connector-curvature="0" />
  <metadata
     id="metadata825">
    <rdf:RDF>
      <cc:Work
         rdf:about="">
        <dc:title></dc:title>
        <dc:format>image/svg+xml</dc:format>
        <dc:type
           rdf:resource="http://purl.org/dc/dcmitype/StillImage" />
      </cc:Work>
    </rdf:RDF>
  </metadata>
</svg>
