<?xml version="1.0" encoding="UTF-8" standalone="no"?>
<svg
   xmlns:dc="http://purl.org/dc/elements/1.1/"
   xmlns:cc="http://creativecommons.org/ns#"
   xmlns:rdf="http://www.w3.org/1999/02/22-rdf-syntax-ns#"
   xmlns:svg="http://www.w3.org/2000/svg"
   xmlns="http://www.w3.org/2000/svg"
   viewBox="0 0 79.999997 80"
   version="1.1"
   id="svg11">
  <defs
     id="defs15" />
  <g
     id="g833"
     style="fill:#00e2cc;fill-opacity:1">
    <path
       d="M 26.052734,0.60279846 V 21.063736 h 1 V 1.6027985 h 45 V 29.602798 H 50.822265 v 1 H 73.052734 V 0.60279846 Z"
       id="svg-meta-rectangle" />
    <g
       id="svg-meta-text"
       transform="translate(-44.83739,41.563315)">
      <path
         d="m 57.476562,1.7519531 v 1.6425781 h -0.697265 v 0.7402344 h 0.697265 v 3.140625 c 0,0.7234473 0.138925,1.2244011 0.417969,1.5 0.279044,0.272154 0.785749,0.4082032 1.519531,0.4082032 h 0.976563 v -0.796875 h -0.976563 c -0.396173,0 -0.660106,-0.066817 -0.791015,-0.2011719 C 58.495582,8.0511924 58.431641,7.7473538 58.431641,7.2753906 v -3.140625 h 1.958984 V 3.3945312 H 58.431641 V 1.7519531 Z m -18.927734,1.28125 -6.625,2.4023438 v 0.859375 l 6.625,2.4023437 V 7.7558594 L 33.214844,5.8710938 38.548828,3.9746094 Z m 29.712891,0 v 0.9414063 l 5.322265,1.8964844 -5.322265,1.8847656 V 8.6972656 L 74.884766,6.2949219 V 5.4355469 Z M 43.447266,3.2558594 c -0.416844,0 -0.77692,0.085102 -1.080078,0.2539062 -0.303159,0.1688044 -0.564216,0.4303226 -0.78125,0.7851563 V 3.3945312 h -0.955079 v 5.7890626 h 0.955079 V 5.9121094 c 0,-0.5615329 0.143753,-1.0067106 0.429687,-1.3339844 0.285934,-0.3307188 0.670507,-0.4960938 1.15625,-0.4960938 0.409953,0 0.713792,0.1355879 0.910156,0.4042969 0.196365,0.265264 0.294922,0.6762871 0.294922,1.234375 v 3.4628907 h 0.955078 V 5.9121094 c 0,-0.5649779 0.143754,-1.0106169 0.429688,-1.3378906 0.285934,-0.3272738 0.675335,-0.4921876 1.167969,-0.4921876 0.403063,0 0.702073,0.1355879 0.898437,0.4042969 0.196364,0.268709 0.294922,0.6797321 0.294922,1.234375 v 3.4628907 h 0.957031 V 5.6894531 c 0,-0.778567 -0.164914,-1.3785397 -0.492187,-1.7988281 -0.327274,-0.4237334 -0.791659,-0.6347656 -1.394532,-0.6347656 -0.447848,0 -0.83725,0.1014332 -1.167968,0.3046875 C 45.694672,3.7638011 45.409579,4.078681 45.171875,4.5058594 45.030631,4.0993509 44.811894,3.7897611 44.515625,3.5761719 44.222801,3.3625827 43.867554,3.2558594 43.447266,3.2558594 Z m 9.957031,0 c -0.868137,0 -1.558963,0.2798027 -2.072266,0.8378906 -0.509858,0.5546429 -0.763672,1.3045817 -0.763672,2.2519531 0,0.9163666 0.26727,1.6442227 0.804688,2.1816407 0.540863,0.5374179 1.274009,0.8046874 2.197265,0.8046874 0.368614,0 0.731566,-0.037491 1.089844,-0.1132812 0.358279,-0.07579 0.707775,-0.1853887 1.048828,-0.3300781 V 7.9882812 c -0.337608,0.1791394 -0.678938,0.3147273 -1.023437,0.4042969 -0.341054,0.08957 -0.693425,0.1347657 -1.058594,0.1347657 -0.630433,0 -1.123682,-0.1706651 -1.478515,-0.5117188 -0.351389,-0.3444987 -0.546551,-0.8454525 -0.587891,-1.5 h 4.371094 V 6.0507812 C 55.931641,5.1895345 55.704738,4.5092887 55.25,4.0097656 54.798707,3.5067975 54.182864,3.2558594 53.404297,3.2558594 Z m 10.273437,0 c -0.310048,0 -0.629757,0.034616 -0.957031,0.1035156 -0.327274,0.065455 -0.663775,0.1644736 -1.011719,0.2988281 V 4.5371094 C 61.998363,4.37864 62.299787,4.2608753 62.613281,4.1816406 62.926775,4.1024059 63.249359,4.0625 63.580078,4.0625 c 0.520193,0 0.923051,0.120179 1.208984,0.3613281 0.289379,0.2377041 0.433594,0.5742054 0.433594,1.0117188 v 0.09375 h -1.333984 c -0.864692,0 -1.515612,0.165375 -1.953125,0.4960937 -0.434068,0.3307188 -0.650391,0.8215537 -0.650391,1.4726563 0,0.5580879 0.173541,1.0037269 0.521485,1.3378906 0.351388,0.3307188 0.823477,0.4960937 1.416015,0.4960937 0.468518,0 0.865625,-0.082687 1.189453,-0.2480468 0.323829,-0.1688044 0.593513,-0.4279082 0.810547,-0.7792969 v 0.8789063 h 0.951172 V 5.8808594 c 0,-0.8819167 -0.207695,-1.540541 -0.621094,-1.9746094 -0.413398,-0.4340684 -1.037868,-0.6503906 -1.875,-0.6503906 z M 53.414062,4.0625 c 0.468519,0 0.844465,0.1547949 1.126954,0.4648438 0.285934,0.3100488 0.432563,0.7239475 0.439453,1.2441406 l -3.390625,0.00586 c 0.04823,-0.544308 0.231889,-0.9659112 0.548828,-1.265625 C 52.459056,4.2120049 52.883534,4.0625 53.414062,4.0625 Z m 10.863282,2.2109375 h 0.945312 v 0.2128906 c 0,0.6200977 -0.160085,1.1166839 -0.480468,1.4921875 -0.316939,0.3720586 -0.738542,0.5585938 -1.265626,0.5585938 -0.382393,0 -0.686232,-0.098558 -0.910156,-0.2949219 -0.220479,-0.1998092 -0.330078,-0.4690319 -0.330078,-0.8066406 0,-0.4237334 0.147091,-0.7227432 0.44336,-0.8984375 0.296268,-0.1756944 0.829424,-0.2636719 1.597656,-0.2636719 z"
         transform="translate(40.890124,-40.797)"
         id="svg-meta-text-1" />
      <path
         d="m 57.554688,10.986328 v 1.642578 h -0.697266 v 0.738282 h 0.697266 v 3.142578 c 0,0.723447 0.140877,1.222448 0.419921,1.498046 0.279044,0.272154 0.783796,0.408204 1.517579,0.408204 h 0.976562 v -0.794922 h -0.976562 c -0.396174,0 -0.658153,-0.06682 -0.789063,-0.201172 -0.127465,-0.134355 -0.191406,-0.438193 -0.191406,-0.910156 v -3.142578 h 1.957031 v -0.738282 h -1.957031 v -1.642578 z m -18.927735,1.28125 -6.625,2.402344 v 0.857422 l 6.625,2.404297 v -0.941407 l -5.333984,-1.886718 5.333984,-1.896485 z m 29.712891,0 v 0.939453 l 5.322265,1.896485 -5.322265,1.886718 v 0.941407 l 6.625,-2.404297 v -0.857422 z m -24.814453,0.222656 c -0.416844,0 -0.77692,0.08315 -1.080079,0.251954 -0.303158,0.168804 -0.562262,0.430322 -0.779296,0.785156 v -0.898438 h -0.957032 v 5.78711 h 0.957032 v -3.269532 c 0,-0.561533 0.1418,-1.00671 0.427734,-1.333984 0.285934,-0.330719 0.67246,-0.496094 1.158203,-0.496094 0.409954,0 0.711839,0.133635 0.908203,0.402344 0.196365,0.265264 0.294922,0.67824 0.294922,1.236328 v 3.460938 h 0.957031 v -3.269532 c 0,-0.564977 0.141801,-1.01257 0.427735,-1.339843 0.285934,-0.327274 0.675335,-0.490235 1.167968,-0.490235 0.403064,0 0.704027,0.133635 0.900391,0.402344 0.196364,0.268709 0.292969,0.681685 0.292969,1.236328 v 3.460938 h 0.957031 v -3.492188 c 0,-0.778567 -0.16296,-1.37854 -0.490234,-1.798828 -0.327274,-0.423733 -0.793612,-0.634766 -1.396485,-0.634766 -0.447848,0 -0.83725,0.101434 -1.167968,0.304688 -0.330719,0.203254 -0.613859,0.518134 -0.851563,0.945312 -0.141244,-0.406508 -0.359981,-0.716098 -0.65625,-0.929687 -0.292824,-0.213589 -0.650024,-0.320313 -1.070312,-0.320313 z m 9.957031,0 c -0.868137,0 -1.558963,0.27785 -2.072266,0.835938 -0.509858,0.554643 -0.763672,1.306535 -0.763672,2.253906 0,0.916367 0.269223,1.64227 0.806641,2.179688 0.540863,0.537418 1.272056,0.80664 2.195313,0.80664 0.368613,0 0.731565,-0.03749 1.089843,-0.113281 0.358279,-0.07579 0.707775,-0.187342 1.048828,-0.332031 v -0.898438 c -0.337608,0.17914 -0.676985,0.312774 -1.021484,0.402344 -0.341054,0.08957 -0.695378,0.134766 -1.060547,0.134766 -0.630433,0 -1.123682,-0.170665 -1.478516,-0.511719 -0.351388,-0.344499 -0.54655,-0.843499 -0.58789,-1.498047 h 4.371094 v -0.464844 c 0,-0.861247 -0.226903,-1.541492 -0.681641,-2.041015 -0.451293,-0.502968 -1.067136,-0.753907 -1.845703,-0.753907 z m 10.273437,0 c -0.310048,0 -0.627804,0.03462 -0.955078,0.103516 -0.327274,0.06546 -0.665728,0.164474 -1.013672,0.298828 v 0.878906 c 0.289379,-0.158469 0.590803,-0.278187 0.904297,-0.357422 0.313494,-0.07923 0.636078,-0.11914 0.966797,-0.11914 0.520193,0 0.923051,0.122132 1.208985,0.363281 0.289378,0.237704 0.433593,0.574206 0.433593,1.011719 v 0.09375 H 63.96875 c -0.864692,0 -1.515612,0.165375 -1.953125,0.496094 -0.434068,0.330718 -0.652344,0.821553 -0.652344,1.472656 0,0.558088 0.173541,1.003727 0.521485,1.33789 0.351388,0.330719 0.823477,0.496094 1.416015,0.496094 0.468518,0 0.865625,-0.08269 1.189453,-0.248047 0.323829,-0.168804 0.593513,-0.427908 0.810547,-0.779297 v 0.876954 h 0.951172 v -3.300782 c 0,-0.881916 -0.205742,-1.540541 -0.619141,-1.974609 -0.413398,-0.434068 -1.039821,-0.650391 -1.876953,-0.650391 z m -10.261718,0.804688 c 0.468518,0 0.842511,0.154795 1.125,0.464844 0.285934,0.310048 0.432563,0.7259 0.439453,1.246093 l -3.388672,0.0059 c 0.04823,-0.544308 0.229936,-0.965911 0.546875,-1.265625 0.320384,-0.299714 0.746816,-0.451172 1.277344,-0.451172 z m 10.861328,2.21289 h 0.945312 v 0.210938 c 0,0.620098 -0.160085,1.118637 -0.480469,1.494141 -0.316938,0.372058 -0.738541,0.558593 -1.265624,0.558593 -0.382394,0 -0.686233,-0.09856 -0.910157,-0.294922 -0.220479,-0.199809 -0.330078,-0.469031 -0.330078,-0.80664 0,-0.423734 0.149044,-0.722743 0.445313,-0.898438 0.296269,-0.175694 0.827471,-0.263672 1.595703,-0.263672 z"
         transform="translate(40.890124,-40.797)"
         id="svg-meta-text-2" />
      <path
         d="m 57.501953,20.224609 v 1.642579 h -0.697265 v 0.738281 h 0.697265 v 3.142578 c 0,0.723448 0.140878,1.222448 0.419922,1.498047 0.279044,0.272154 0.783796,0.408203 1.517578,0.408203 h 0.976563 v -0.794922 h -0.976563 c -0.396173,0 -0.658153,-0.06682 -0.789062,-0.201172 -0.127465,-0.134355 -0.191407,-0.438192 -0.191407,-0.910156 v -3.142578 h 1.957032 v -0.738281 h -1.957032 v -1.642579 z m 10.785156,1.28125 v 0.939453 l 5.322266,1.896485 -5.322266,1.886719 v 0.941406 l 6.625,-2.404297 v -0.857422 z m -4.583984,0.222657 c -0.310049,0 -0.627804,0.03462 -0.955078,0.103515 -0.327274,0.06546 -0.665728,0.164473 -1.013672,0.298828 v 0.878907 c 0.289379,-0.158469 0.590803,-0.278187 0.904297,-0.357422 0.313494,-0.07923 0.636078,-0.119141 0.966797,-0.119141 0.520193,0 0.92305,0.122132 1.208984,0.363281 0.289379,0.237704 0.433594,0.574205 0.433594,1.011719 v 0.09375 h -1.332031 c -0.864692,0 -1.515612,0.165376 -1.953125,0.496094 -0.434069,0.330719 -0.652344,0.821553 -0.652344,1.472656 0,0.558088 0.173541,1.003728 0.521484,1.337891 0.351389,0.330719 0.823478,0.496093 1.416016,0.496094 0.468518,0 0.865624,-0.08269 1.189453,-0.248047 0.323829,-0.168804 0.593513,-0.427908 0.810547,-0.779297 v 0.876953 h 0.951172 v -3.300781 c 0,-0.881917 -0.205742,-1.540542 -0.619141,-1.97461 -0.413398,-0.434069 -1.039821,-0.65039 -1.876953,-0.65039 z m -8.933594,0.349609 v 1.207031 c 0.150281,0.265565 0.231357,0.583682 0.236328,0.958985 h -0.236328 v 0.74414 h 1.1875 v -0.464843 c 0,-0.861247 -0.226902,-1.541493 -0.68164,-2.041016 -0.14849,-0.165492 -0.321807,-0.293336 -0.50586,-0.404297 z m 9.533203,2.667969 h 0.945313 v 0.210937 c 0,0.620097 -0.160085,1.118638 -0.480469,1.494141 -0.316939,0.372059 -0.738542,0.558594 -1.265625,0.558594 -0.382393,0 -0.686232,-0.09856 -0.910156,-0.294922 -0.220479,-0.199809 -0.330078,-0.469033 -0.330078,-0.806641 0,-0.423734 0.149043,-0.722743 0.445312,-0.898437 0.296269,-0.175694 0.827471,-0.263672 1.595703,-0.263672 z m -8.568359,1.714844 c -0.318918,0.169221 -0.639944,0.295348 -0.964844,0.384765 v 0.824219 c 0.328747,-0.07473 0.650689,-0.175317 0.964844,-0.308594 z"
         transform="translate(40.890124,-40.960517)"
         id="svg-meta-text-3" />
    </g>
    <g
       id="svg-meta-tags">
      <path
         id="svg-meta-tag-1"
         d="M 8.4882814,22.221939 0,30.71022 v 8.488281 l 8.4453124,8.445313 V 46.624282 L 17.705078,37.364517 H 49.720703 V 22.221939 Z m 0.646484,9.697265 a 3.05078,3.05078 0 0 1 3.0507806,3.050782 3.05078,3.05078 0 0 1 -3.0507806,3.050781 3.05078,3.05078 0 0 1 -3.050781,-3.050781 3.05078,3.05078 0 0 1 3.050781,-3.050782 z" />
      <path
         id="svg-meta-tag-2"
         d="m 18.421875,38.52272 -8.4882816,8.488281 v 8.490235 l 7.8691406,7.867187 V 62.636001 L 27.0625,53.376236 H 59.654296 V 38.52272 Z m 0.648437,9.697266 a 3.05078,3.05078 0 0 1 3.050781,3.050781 3.05078,3.05078 0 0 1 -3.050781,3.050781 3.05078,3.05078 0 0 1 -3.050781,-3.050781 3.05078,3.05078 0 0 1 3.050781,-3.050781 z m 8.699219,15.736328 a 3.3281,3.3281 0 0 0 -0.425781,0.03125 h 0.859375 a 3.3281,3.3281 0 0 0 -0.433594,-0.03125 z" />
      <path
         d="m 27.778532,54.53367 -8.488179,8.488178 v 8.489969 l 8.488179,8.488179 H 69.010921 V 54.53367 Z m 0.648117,9.698473 a 3.05078,3.05078 0 0 1 3.050803,3.050803 3.05078,3.05078 0 0 1 -3.050803,3.050803 3.05078,3.05078 0 0 1 -3.050804,-3.050803 3.05078,3.05078 0 0 1 3.050804,-3.050803 z"
         id="svg-meta-tag-3" />
    </g>
  </g>
</svg>
