<?xml version="1.0" encoding="UTF-8" standalone="no"?>
<svg
   xmlns:dc="http://purl.org/dc/elements/1.1/"
   xmlns:cc="http://creativecommons.org/ns#"
   xmlns:rdf="http://www.w3.org/1999/02/22-rdf-syntax-ns#"
   xmlns:svg="http://www.w3.org/2000/svg"
   xmlns="http://www.w3.org/2000/svg"
   viewBox="0 0 420.99585 310.49731"
   xml:space="preserve"
   id="svg2"
   version="1.1"><metadata
     id="metadata8"><rdf:RDF><cc:Work
         rdf:about=""><dc:format>image/svg+xml</dc:format><dc:type
           rdf:resource="http://purl.org/dc/dcmitype/StillImage" /><dc:title></dc:title></cc:Work></rdf:RDF></metadata><defs
     id="defs6" /><g
     transform="matrix(1.3333333,0,0,-1.3333333,-25.120882,1027.9448)"
     id="g10"><path
   d="m 241.72056,681.39161 v 26.871 c 0,0 -18.573,-8.957 -18.573,8.956 0,17.913 18.573,8.956 18.573,8.956 v 26.87 h -27.86 c 0,0 9.287,17.913 -9.287,17.913 -18.573,0 -9.287,-17.913 -9.287,-17.913 h -27.859 v -26.87 c 0,0 -18.574,8.957 -18.574,-8.956 0,-17.913 18.574,-8.956 18.574,-8.956 v -26.871 h 27.859 c 0,0 -9.286,17.914 9.287,17.914 18.574,0 9.287,-17.914 9.287,-17.914 z"
   style="fill:#ffd06f;fill-opacity:1;fill-rule:nonzero;stroke:none"
   id="path570" /><path
   d="m 167.42906,538.08561 v 26.871 c 0,0 -18.573,-8.957 -18.573,8.956 0,17.913 18.573,8.956 18.573,8.956 v 26.87 h -27.86 c 0,0 9.287,-17.913 -9.287,-17.913 -18.573,0 -9.286,17.913 -9.286,17.913 h -27.86 v -26.871 c 0,0 -18.574,8.958 -18.574,-8.955 0,-17.913 18.574,-8.958 18.574,-8.958 v -26.869 h 27.86 c 0,0 -9.287,17.913 9.286,17.914 18.574,0 9.287,-17.914 9.287,-17.914 z"
   style="fill:#ffb300;fill-opacity:1;fill-rule:nonzero;stroke:none"
   id="path708" /><path
   d="m 93.13406,753.04461 v -26.87 c 0,0 -18.572,8.957 -18.572,-8.956 0,-17.914 18.572,-8.957 18.572,-8.957 v -26.87 h 27.86 c 0,0 -9.287,17.913 9.287,17.913 18.573,0 9.287,-17.913 9.287,-17.913 h 27.859 v 26.87 c 0,0 -18.573,-8.957 -18.573,8.957 0,17.913 18.573,8.956 18.573,8.956 v 26.87 h -27.859 c 0,0 9.286,17.914 -9.287,17.914 -18.574,0 -9.287,-17.914 -9.287,-17.914 z"
   style="fill:#5126ff;fill-opacity:1;fill-rule:nonzero;stroke:none"
   id="path1030" /><path
   d="m 18.840662,681.39161 v -26.87 c 0,0 18.573,8.957 18.573,-8.956 0,-17.914 -18.573,-8.957 -18.573,-8.957 v -26.87 h 27.86 c 0,0 -9.287,17.913 9.287,17.913 18.573,0 9.287,-17.913 9.287,-17.913 h 27.86 v 26.87 c 0,0 18.572998,-8.957 18.572998,8.957 0,17.912 -18.572998,8.956 -18.572998,8.956 l -0.001,26.87 h -27.859 c 0,0 9.286,17.913 -9.287,17.913 -18.574,0 -9.287,-17.913 -9.287,-17.913 z"
   style="fill:#00e2cc;fill-opacity:1;fill-rule:nonzero;stroke:none"
   id="path1398" /><path
   d="m 167.42756,681.39161 v -26.87 c 0,0 18.574,8.957 18.574,-8.956 0,-17.914 -18.574,-8.957 -18.574,-8.957 v -26.87 h 27.859 c 0,0 -9.285,-17.913 9.287,-17.913 18.574,0 9.287,17.913 9.287,17.913 h 27.86 v 26.87 c 0,0 18.574,-8.957 18.574,8.957 0,17.912 -18.574,8.956 -18.574,8.956 v 26.87 h -27.86 c 0,0 9.287,17.913 -9.287,17.913 -18.572,0 -9.287,-17.913 -9.287,-17.913 z"
   style="fill:#007bff;fill-opacity:1;fill-rule:nonzero;stroke:none"
   id="path1582" /><path
   d="m 241.72056,681.39161 v -26.87 c 0,0 18.574,8.958 18.574,-8.956 0,-17.914 -18.574,-8.957 -18.574,-8.957 v -26.87 h 27.859 c 0,0 -9.285,17.913 9.287,17.913 18.574,0 9.287,-17.913 9.287,-17.913 h 27.86 v 26.87 c 0,0 18.574,-8.957 18.574,8.957 0,17.913 -18.574,8.956 -18.574,8.956 v 26.87 h -27.86 c 0,0 9.287,17.914 -9.287,17.914 -18.572,0 -9.287,-17.914 -9.287,-17.914 z"
   style="fill:#00e2cc;fill-opacity:1;fill-rule:nonzero;stroke:none;stroke-width:0.99999994"
   id="path1444-3" /><text
   transform="scale(1,-1)"
   id="text3619"
   y="-629"
   x="35"
   style="font-style:normal;font-variant:normal;font-weight:normal;font-stretch:normal;font-size:48px;line-height:1.25;font-family:Raleway;-inkscape-font-specification:Raleway;letter-spacing:0px;word-spacing:0px;fill:#ffffff;fill-opacity:0.47089946;stroke:none;stroke-width:0.75;"
   xml:space="preserve"><tspan
     style="font-style:normal;font-variant:normal;font-weight:normal;font-stretch:normal;font-size:48px;font-family:Raleway;-inkscape-font-specification:Raleway;fill:#ffffff;fill-opacity:0.47089946;stroke-width:0.75;"
     y="-629"
     x="35"
     id="tspan3617">M</tspan></text>


<text
   transform="scale(1,-1)"
   id="text3619-9"
   y="-629"
   x="190.16277"
   style="font-style:normal;font-variant:normal;font-weight:normal;font-stretch:normal;font-size:48px;line-height:1.25;font-family:Raleway;-inkscape-font-specification:Raleway;letter-spacing:0px;word-spacing:0px;fill:#ffffff;fill-opacity:0.47089946;stroke:none;stroke-width:0.75;"
   xml:space="preserve"><tspan
     style="font-style:normal;font-variant:normal;font-weight:normal;font-stretch:normal;font-size:48px;font-family:Raleway;-inkscape-font-specification:Raleway;fill:#ffffff;fill-opacity:0.47089946;stroke-width:0.75;"
     y="-629"
     x="190.16277"
     id="tspan3617-2">T</tspan></text>


<text
   transform="scale(1,-1)"
   id="text3619-0"
   y="-629"
   x="262.68417"
   style="font-style:normal;font-variant:normal;font-weight:normal;font-stretch:normal;font-size:48px;line-height:1.25;font-family:Raleway;-inkscape-font-specification:Raleway;letter-spacing:0px;word-spacing:0px;fill:#ffffff;fill-opacity:0.47089946;stroke:none;stroke-width:0.75;"
   xml:space="preserve"><tspan
     style="font-style:normal;font-variant:normal;font-weight:normal;font-stretch:normal;font-size:48px;font-family:Raleway;-inkscape-font-specification:Raleway;fill:#ffffff;fill-opacity:0.47089946;stroke-width:0.75;"
     y="-629"
     x="262.68417"
     id="tspan3617-23">A</tspan></text>


<path
   d="m 241.72206,538.08661 v 26.871 c 0,0 -18.573,-8.957 -18.573,8.956 0,17.913 18.573,8.956 18.573,8.956 v 26.87 h -27.86 c 0,0 9.287,-17.913 -9.287,-17.913 -18.573,0 -9.286,17.913 -9.286,17.913 h -27.86 v -26.871 c 0,0 -18.574,8.958 -18.574,-8.955 0,-17.913 18.574,-8.958 18.574,-8.958 v -26.869 h 27.86 c 0,0 -9.287,17.913 9.286,17.914 18.574,0 9.287,-17.914 9.287,-17.914 z"
   style="fill:#ff859f;fill-opacity:1;fill-rule:nonzero;stroke:none;stroke-width:0.99999994"
   id="path708-7" /></g></svg>
