<?xml version="1.0" encoding="UTF-8" standalone="no"?>
<svg
   xmlns:dc="http://purl.org/dc/elements/1.1/"
   xmlns:cc="http://creativecommons.org/ns#"
   xmlns:rdf="http://www.w3.org/1999/02/22-rdf-syntax-ns#"
   xmlns:svg="http://www.w3.org/2000/svg"
   xmlns="http://www.w3.org/2000/svg"
   id="svg8"
   version="1.1"
   viewBox="0 0 87.142395 20.951485"
   height="20.951485mm"
   width="87.142395mm">
  <defs
     id="defs2" />
  <metadata
     id="metadata5">
    <rdf:RDF>
      <cc:Work
         rdf:about="">
        <dc:format>image/svg+xml</dc:format>
        <dc:type
           rdf:resource="http://purl.org/dc/dcmitype/StillImage" />
        <dc:title></dc:title>
      </cc:Work>
    </rdf:RDF>
  </metadata>
  <g
     transform="translate(-14.828125,-10.82)"
     id="layer1">
    <g
       style="fill:#646464;fill-opacity:1"
       id="g856">
      <path
         id="path4641"
         d="m 24.22,18.06 q 0,1.02 0.24,1.84 0.26,0.82 0.72,1.42 0.48,0.58 1.16,0.9 0.68,0.32 1.56,0.32 0.86,0 1.54,-0.32 0.7,-0.32 1.16,-0.9 0.48,-0.6 0.72,-1.42 0.26,-0.82 0.26,-1.84 0,-1.02 -0.26,-1.84 -0.24,-0.84 -0.72,-1.42 -0.46,-0.6 -1.16,-0.92 -0.68,-0.32 -1.54,-0.32 -0.88,0 -1.56,0.34 -0.68,0.32 -1.16,0.92 -0.46,0.58 -0.72,1.42 -0.24,0.82 -0.24,1.82 z m 10.58,0 q 0,1.78 -0.54,3.14 -0.52,1.34 -1.44,2.26 -0.92,0.9 -2.2,1.36 -1.26,0.46 -2.72,0.46 -1.42,0 -2.68,-0.46 -1.26,-0.46 -2.2,-1.36 Q 22.08,22.54 21.54,21.2 21,19.84 21,18.06 q 0,-1.78 0.56,-3.12 0.56,-1.36 1.5,-2.28 0.96,-0.92 2.2,-1.38 1.26,-0.46 2.64,-0.46 1.42,0 2.68,0.46 1.26,0.46 2.2,1.38 0.94,0.92 1.48,2.28 0.54,1.34 0.54,3.12 z" />
      <path
         id="path4643"
         d="m 42.92125,19.82 q 0,-1.38 -0.62,-2.2 -0.62,-0.84 -1.84,-0.84 -0.4,0 -0.74,0.04 -0.34,0.02 -0.56,0.06 v 5.38 q 0.28,0.18 0.72,0.3 0.46,0.12 0.92,0.12 2.12,0 2.12,-2.86 z m 3.04,-0.08 q 0,1.22 -0.3,2.22 -0.3,1 -0.88,1.72 -0.58,0.72 -1.44,1.12 -0.86,0.4 -1.98,0.4 -0.62,0 -1.16,-0.12 -0.54,-0.12 -1.04,-0.34 v 3.96 h -2.98 V 14.84 q 0.4,-0.12 0.92,-0.22 0.52,-0.12 1.08,-0.2 0.58,-0.08 1.16,-0.12 0.6,-0.06 1.14,-0.06 1.3,0 2.32,0.4 1.02,0.38 1.72,1.1 0.7,0.7 1.06,1.72 0.38,1.02 0.38,2.28 z" />
      <path
         id="path4645"
         d="m 46.751562,19.82 q 0,-1.4 0.42,-2.44 0.44,-1.06 1.14,-1.76 0.7,-0.7 1.600001,-1.06 0.92,-0.36 1.879999,-0.36 2.24,0 3.540001,1.38 1.299999,1.36 1.299999,4.02 0,0.26 -0.02,0.58 -0.02,0.3 -0.04,0.54 h -6.76 q 0.100001,0.92 0.86,1.46 0.76,0.54 2.04,0.54 0.82,0 1.6,-0.14 0.8,-0.16 1.3,-0.38 l 0.4,2.42 q -0.239999,0.12 -0.639999,0.24 -0.4,0.12 -0.900001,0.2 -0.48,0.1 -1.04,0.16 -0.559999,0.06 -1.12,0.06 -1.42,0 -2.479999,-0.42 -1.040001,-0.42 -1.74,-1.14 -0.68,-0.74 -1.020001,-1.74 -0.32,-1 -0.32,-2.16 z m 7,-1.14 q -0.02,-0.38 -0.14,-0.74 -0.1,-0.36 -0.339999,-0.64 -0.22,-0.28 -0.58,-0.46 -0.340001,-0.18 -0.860001,-0.18 -0.499999,0 -0.86,0.18 -0.36,0.16 -0.599999,0.44 -0.240001,0.28 -0.380001,0.66 -0.119999,0.36 -0.18,0.74 z" />
      <path
         id="path4647"
         d="m 57.93125,14.84 q 0.76,-0.22 1.96,-0.4 1.2,-0.2 2.52,-0.2 1.34,0 2.22,0.36 0.9,0.34 1.42,0.98 0.52,0.64 0.74,1.52 0.22,0.88 0.22,1.96 V 25 h -2.98 v -5.58 q 0,-1.44 -0.38,-2.04 -0.38,-0.6 -1.42,-0.6 -0.32,0 -0.68,0.04 -0.36,0.02 -0.64,0.06 V 25 h -2.98 z" />
      <path
         id="path4649"
         d="m 72.048125,22.46 q 0.22,0.02 0.5,0.04 0.3,0 0.7,0 2.34,0 3.46,-1.18 1.14,-1.18 1.14,-3.26 0,-2.18 -1.08,-3.3 -1.08,-1.12 -3.42,-1.12 -0.32,0 -0.66,0.02 -0.34,0 -0.64,0.04 z m 9.02,-4.4 q 0,1.8 -0.56,3.14 -0.56,1.34 -1.6,2.22 -1.02,0.88 -2.5,1.32 -1.48,0.44 -3.32,0.44 -0.84,0 -1.96,-0.08 -1.12,-0.06 -2.2,-0.28 v -13.5 q 1.08,-0.2 2.24,-0.26 1.18,-0.08 2.02,-0.08 1.78,0 3.22,0.4 1.46,0.4 2.5,1.26 1.04,0.86 1.6,2.2 0.56,1.34 0.56,3.22 z" />
      <path
         id="path4651"
         d="m 86.474688,22.92 q 0.439999,0 0.84,-0.02 0.399999,-0.02 0.64,-0.06 v -2.26 q -0.180001,-0.04 -0.540001,-0.08 -0.36,-0.04 -0.659999,-0.04 -0.420001,0 -0.8,0.06 -0.36,0.04 -0.64,0.18 -0.28,0.14 -0.440001,0.38 -0.16,0.24 -0.16,0.6 0,0.7 0.460001,0.98 0.479999,0.26 1.3,0.26 z m -0.24,-8.72 q 1.319999,0 2.199999,0.3 0.880001,0.3 1.4,0.86 0.54,0.56 0.760001,1.36 0.22,0.8 0.22,1.78 v 6.2 q -0.64,0.14 -1.78,0.32 -1.14,0.2 -2.760001,0.2 -1.019999,0 -1.86,-0.18 -0.819999,-0.18 -1.42,-0.58 -0.599999,-0.42 -0.92,-1.08 -0.319999,-0.66 -0.319999,-1.62 0,-0.92 0.36,-1.56 0.379999,-0.64 1,-1.02 0.62,-0.38 1.42,-0.54 0.799999,-0.18 1.659999,-0.18 0.58,0 1.02,0.06 0.460001,0.04 0.740001,0.12 v -0.28 q 0,-0.76 -0.460001,-1.22 -0.459999,-0.46 -1.599999,-0.46 -0.760001,0 -1.5,0.12 -0.740001,0.1 -1.28,0.3 l -0.38,-2.4 q 0.259999,-0.08 0.639999,-0.16 0.4,-0.1 0.860001,-0.16 0.459999,-0.08 0.959999,-0.12 0.52,-0.06 1.040001,-0.06 z" />
      <path
         id="path4653"
         d="M 101.96938,22.32 V 25 H 92.709375 V 11.14 h 3.12 v 11.18 z" />
      <path
         d="m 22.828125,21.828125 -8,8 1.943359,1.943359 8,-8 z"
         id="path823" />
    </g>
    <path
       id="path823-3"
       transform="scale(0.26458333)"
       d="m 92.111328,102.04688 -6.421875,6.42187 h 43.494137 v -6.42187 z m 63.458982,0 v 6.42187 h 229.83008 v -6.42187 z"
       style="fill:#646464;fill-opacity:1" />
    <path
       id="path1729"
       transform="scale(0.26458333)"
       d="m 98.902344,64.251953 v 17.539063 c 0.423129,0.275003 0.859152,0.533213 1.328126,0.753906 1.24991,0.588192 2.69563,0.917365 4.3418,1.007812 V 64.251953 Z m 15.871096,1.890625 v 12.927734 c 0.88542,-1.229282 1.58847,-2.647021 2.07422,-4.30664 a 1.593605,1.593605 0 0 1 0.008,-0.0293 c 0.59749,-1.884382 0.9082,-4.039554 0.9082,-6.474609 0,-0.734069 -0.038,-1.433828 -0.0937,-2.117188 z m -7.93555,3.779297 v 13.607422 c 1.39149,-0.129467 2.63203,-0.458273 3.75,-0.984375 a 1.593605,1.593605 0 0 1 0.0156,-0.0078 c 0.698,-0.319087 1.32432,-0.69923 1.90429,-1.126953 V 69.921875 Z m -13.472656,1.888672 c 0.139557,1.035942 0.340138,2.012066 0.605469,2.923828 0.0011,0.0035 0.0067,0.0043 0.0078,0.0078 0.602672,1.897228 1.410178,3.49574 2.429687,4.833984 0.07285,0.08771 0.153804,0.163133 0.228516,0.248047 v -8.013672 z"
       style="fill:#00e2cc;fill-opacity:1" />
  </g>
</svg>
