<?xml version="1.0" encoding="UTF-8" standalone="no"?>
<svg
   xmlns:dc="http://purl.org/dc/elements/1.1/"
   xmlns:cc="http://creativecommons.org/ns#"
   xmlns:rdf="http://www.w3.org/1999/02/22-rdf-syntax-ns#"
   xmlns:svg="http://www.w3.org/2000/svg"
   xmlns="http://www.w3.org/2000/svg"
   id="svg4"
   version="1.1"
   viewBox="0 0 512 512">
  <metadata
     id="metadata10">
    <rdf:RDF>
      <cc:Work
         rdf:about="">
        <dc:format>image/svg+xml</dc:format>
        <dc:type
           rdf:resource="http://purl.org/dc/dcmitype/StillImage" />
        <dc:title></dc:title>
      </cc:Work>
    </rdf:RDF>
  </metadata>
  <defs
     id="defs8" />
  <path
     style="fill:#a0a0a0"
     id="path2"
     d="M 256,8 C 119.043,8 8,119.083 8,256 8,392.997 119.043,504 256,504 392.957,504 504,392.997 504,256 504,119.083 392.957,8 256,8 Z m 0,448 C 145.468,456 56,366.569 56,256 56,145.505 145.472,56 256,56 c 110.491,0 200,89.471 200,200 0,110.53 -89.431,200 -200,200 z M 363.244,200.8 c 0,67.052 -72.421,68.084 -72.421,92.863 V 300 c 0,6.627 -5.373,12 -12,12 h -45.647 c -6.627,0 -12,-5.373 -12,-12 v -8.659 c 0,-35.745 27.1,-50.034 47.579,-61.516 17.561,-9.845 28.324,-16.541 28.324,-29.579 0,-17.246 -21.999,-28.693 -39.784,-28.693 -23.189,0 -33.894,10.977 -48.942,29.969 -4.057,5.12 -11.46,6.071 -16.666,2.124 l -27.824,-21.098 c -5.107,-3.872 -6.251,-11.066 -2.644,-16.363 C 184.846,131.491 214.94,112 261.794,112 c 49.071,0 101.45,38.304 101.45,88.8 z M 298,368 c 0,23.159 -18.841,42 -42,42 -23.159,0 -42,-18.841 -42,-42 0,-23.159 18.841,-42 42,-42 23.159,0 42,18.841 42,42 z" />
</svg>
