<?xml version="1.0" encoding="UTF-8" standalone="no"?>
<svg
   xmlns:dc="http://purl.org/dc/elements/1.1/"
   xmlns:cc="http://creativecommons.org/ns#"
   xmlns:rdf="http://www.w3.org/1999/02/22-rdf-syntax-ns#"
   xmlns:svg="http://www.w3.org/2000/svg"
   xmlns="http://www.w3.org/2000/svg"
   id="svg4"
   version="1.1"
   viewBox="0 0 10 10">
  <metadata
     id="metadata10">
    <rdf:RDF>
      <cc:Work
         rdf:about="">
        <dc:format>image/svg+xml</dc:format>
        <dc:type
           rdf:resource="http://purl.org/dc/dcmitype/StillImage" />
        <dc:title></dc:title>
      </cc:Work>
    </rdf:RDF>
  </metadata>
  <defs
     id="defs8" />
  <path
     style="fill:#282f39;fill-opacity:1;stroke-width:0"
     id="path2"
     d="m 7.3550695,6.6923293 1.9944893,1.9501674 c 0.1974437,0.193056 0.2010005,0.5096185 0.00794,0.7070621 -0.193056,0.1974437 -0.5096185,0.2010005 -0.7070621,0.00794 l -2,-1.9555555 c -0.00281,-0.00274 -0.00557,-0.00551 -0.0083,-0.0083 C 5.9999667,7.8788862 5.2002574,8.1666667 4.3333333,8.1666667 2.2162418,8.1666667 0.5,6.4504249 0.5,4.3333333 0.5,2.2162418 2.2162418,0.5 4.3333333,0.5 c 2.1170916,0 3.8333334,1.7162418 3.8333334,3.8333333 0,0.8896549 -0.3030696,1.7085241 -0.8115972,2.358996 z M 4.3333333,7.1666667 c 1.5648068,0 2.8333334,-1.2685266 2.8333334,-2.8333334 C 7.1666667,2.7685265 5.8981401,1.5 4.3333333,1.5 2.7685265,1.5 1.5,2.7685265 1.5,4.3333333 c 0,1.5648068 1.2685265,2.8333334 2.8333333,2.8333334 z" />
</svg>
